<?xml version="1.0" encoding="UTF-8"?><svg id="layer-1" xmlns="http://www.w3.org/2000/svg" width="576.87" height="576.87" viewBox="0 0 576.87 576.87"><polygon points="512.5 132.56 512.5 113.08 512.5 93.6 493.01 93.6 473.53 93.6 454.05 93.6 434.56 93.6 434.56 113.08 415.08 113.08 395.59 113.08 395.59 132.56 376.11 132.56 376.11 152.05 356.63 152.05 356.63 171.53 337.14 171.53 337.14 191.01 317.66 191.01 317.66 210.5 317.66 229.98 298.18 229.98 298.18 249.47 278.69 249.47 278.69 229.98 259.21 229.98 259.21 210.5 259.21 191.01 239.72 191.01 239.72 171.53 220.24 171.53 220.24 152.05 200.76 152.05 200.76 132.56 181.27 132.56 181.27 113.08 161.79 113.08 142.3 113.08 142.3 93.6 122.82 93.6 103.34 93.6 83.85 93.6 64.37 93.6 64.37 113.08 64.37 132.56 44.89 132.56 44.89 152.05 44.89 171.53 44.89 191.01 44.89 210.5 44.89 229.98 44.89 249.47 44.89 268.95 64.37 268.95 64.37 288.43 83.85 288.43 83.85 307.92 103.34 307.92 122.82 307.92 142.3 307.92 142.3 327.4 161.79 327.4 181.27 327.4 181.27 346.88 161.79 346.88 142.3 346.88 142.3 366.37 122.82 366.37 122.82 385.85 103.34 385.85 103.34 405.34 103.34 424.82 103.34 444.3 122.82 444.3 122.82 463.79 142.3 463.79 142.3 483.27 161.79 483.27 181.27 483.27 200.76 483.27 220.24 483.27 220.24 463.79 239.72 463.79 239.72 444.3 259.21 444.3 259.21 424.82 259.21 405.34 278.69 405.34 278.69 385.85 298.18 385.85 298.18 405.34 317.66 405.34 317.66 424.82 317.66 444.3 337.14 444.3 337.14 463.79 356.63 463.79 356.63 483.27 376.11 483.27 395.59 483.27 415.08 483.27 434.56 483.27 434.56 463.79 454.05 463.79 454.05 444.3 473.53 444.3 473.53 424.82 473.53 405.34 473.53 385.85 454.05 385.85 454.05 366.37 434.56 366.37 434.56 346.88 415.08 346.88 395.59 346.88 395.59 327.4 415.08 327.4 434.56 327.4 434.56 307.92 454.05 307.92 473.53 307.92 493.01 307.92 493.01 288.43 512.5 288.43 512.5 268.95 531.98 268.95 531.98 249.47 531.98 229.98 531.98 210.5 531.98 191.01 531.98 171.53 531.98 152.05 531.98 132.56 512.5 132.56" fill="#7caa4a"/></svg>